<svg width="284" height="111" viewBox="0 0 284 111" fill="none" xmlns="http://www.w3.org/2000/svg">
<path d="M249.517 109.5V81L250.727 78V16.35L259.953 21.3L215.791 79.35L205.052 71.4H284V89.1H196.583V71.4L250.122 1.5H273.111V109.5H249.517Z" fill="url(#paint0_linear_266_7373)"/>
<path d="M142.025 111C132.951 111 124.834 108.65 117.676 103.95C110.618 99.15 105.072 92.55 101.039 84.15C97.0062 75.65 94.9896 65.95 94.9896 55.05C94.9896 44.15 97.0062 34.6 101.039 26.4C105.072 18.1 110.618 11.65 117.676 7.05C124.834 2.35 132.951 0 142.025 0C151.201 0 159.317 2.35 166.375 7.05C173.433 11.65 178.979 18.1 183.012 26.4C187.045 34.6 189.061 44.15 189.061 55.05C189.061 66.05 187.045 75.75 183.012 84.15C178.979 92.55 173.383 99.15 166.224 103.95C159.166 108.65 151.1 111 142.025 111ZM142.025 91.8C147.168 91.8 151.402 90.1 154.73 86.7C158.057 83.3 160.527 78.8 162.14 73.2C163.754 67.6 164.56 61.5 164.56 54.9C164.56 48.3 163.754 42.3 162.14 36.9C160.527 31.5 158.057 27.2 154.73 24C151.402 20.8 147.168 19.2 142.025 19.2C136.883 19.2 132.649 20.85 129.321 24.15C125.994 27.35 123.524 31.65 121.91 37.05C120.297 42.45 119.491 48.4 119.491 54.9C119.491 61.6 120.297 67.75 121.91 73.35C123.524 78.95 125.994 83.45 129.321 86.85C132.749 90.15 136.984 91.8 142.025 91.8Z" fill="url(#paint1_linear_266_7373)"/>
<path d="M52.9342 109.5V81L54.1441 78V16.35L63.3697 21.3L19.2075 79.35L8.46947 71.4H87.417V89.1H0V71.4L53.5391 1.5H76.5277V109.5H52.9342Z" fill="url(#paint2_linear_266_7373)"/>
<defs>
<linearGradient id="paint0_linear_266_7373" x1="141.703" y1="-34.5" x2="141.703" y2="109.266" gradientUnits="userSpaceOnUse">
<stop stop-color="#1C2A46"/>
<stop offset="1" stop-color="#FAFBFB"/>
</linearGradient>
<linearGradient id="paint1_linear_266_7373" x1="141.703" y1="-34.5" x2="141.703" y2="109.266" gradientUnits="userSpaceOnUse">
<stop stop-color="#1C2A46"/>
<stop offset="1" stop-color="#FAFBFB"/>
</linearGradient>
<linearGradient id="paint2_linear_266_7373" x1="141.703" y1="-34.5" x2="141.703" y2="109.266" gradientUnits="userSpaceOnUse">
<stop stop-color="#1C2A46"/>
<stop offset="1" stop-color="#FAFBFB"/>
</linearGradient>
</defs>
</svg>
