<svg width="48" height="48" viewBox="0 0 48 48" fill="none" xmlns="http://www.w3.org/2000/svg">
<path d="M17.47 5.55633C13.5733 6.90813 10.2128 9.4739 7.88206 12.8768C5.55135 16.2796 4.37328 20.3402 4.5209 24.4621C4.66853 28.584 6.13406 32.5499 8.70224 35.7773C11.2704 39.0047 14.8059 41.3235 18.7893 42.393C22.0187 43.2264 25.4023 43.2629 28.649 42.4997C31.5902 41.839 34.3094 40.4259 36.5404 38.3986C38.8623 36.2242 40.5477 33.458 41.4154 30.3975C42.3585 27.0693 42.5263 23.5692 41.9059 20.1661H23.7709V27.6888H34.2735C34.0636 28.8886 33.6138 30.0338 32.951 31.0557C32.2882 32.0777 31.4261 32.9554 30.4162 33.6363C29.1337 34.4847 27.688 35.0555 26.1719 35.3121C24.6513 35.5948 23.0916 35.5948 21.5711 35.3121C20.0299 34.9935 18.572 34.3574 17.2902 33.4444C15.231 31.9867 13.6848 29.9159 12.8723 27.5273C12.046 25.0941 12.046 22.4561 12.8723 20.0229C13.4506 18.3173 14.4068 16.7644 15.6693 15.48C17.1141 13.9832 18.9433 12.9133 20.9561 12.3877C22.9689 11.862 25.0877 11.9009 27.0798 12.5002C28.6361 12.9779 30.0592 13.8126 31.2358 14.9377C32.42 13.7595 33.6022 12.5784 34.7823 11.3941C35.3917 10.7573 36.0559 10.151 36.6562 9.49898C34.8602 7.8277 32.7521 6.52723 30.4527 5.67211C26.2654 4.15169 21.6838 4.11083 17.47 5.55633Z" fill="white"/>
<path d="M17.4704 5.55634C21.6838 4.10986 26.2655 4.14964 30.4532 5.66908C32.753 6.53001 34.8601 7.83674 36.6535 9.51423C36.0442 10.1663 35.4013 10.7756 34.7797 11.4094C33.5975 12.5895 32.4164 13.7656 31.2362 14.9377C30.0596 13.8126 28.6365 12.9779 27.0803 12.5002C25.0887 11.8988 22.9701 11.8577 20.9567 12.3812C18.9433 12.9047 17.1131 13.9726 15.6667 15.4678C14.4041 16.7522 13.448 18.3051 12.8696 20.0107L6.55347 15.1205C8.81427 10.6372 12.7287 7.20782 17.4704 5.55634Z" fill="#E33629"/>
<path d="M4.87756 19.9644C5.21705 18.2819 5.78066 16.6525 6.55334 15.1199L12.8695 20.0223C12.0432 22.4555 12.0432 25.0935 12.8695 27.5267C10.7651 29.1517 8.65975 30.7849 6.55334 32.4261C4.61903 28.5758 4.0291 24.1889 4.87756 19.9644Z" fill="#F8BD00"/>
<path d="M23.7726 20.1633H41.9076C42.5279 23.5665 42.3601 27.0665 41.417 30.3947C40.5494 33.4553 38.864 36.2214 36.542 38.3958C34.5037 36.8054 32.4562 35.2271 30.4178 33.6366C31.4284 32.955 32.291 32.0763 32.9538 31.0533C33.6166 30.0302 34.066 28.8839 34.2752 27.683H23.7726C23.7695 25.1785 23.7726 22.6709 23.7726 20.1633Z" fill="#587DBD"/>
<path d="M6.55054 32.4265C8.65694 30.8015 10.7623 29.1683 12.8667 27.5271C13.6809 29.9165 15.2293 31.9874 17.2908 33.4441C18.5766 34.3529 20.0376 34.9838 21.5808 35.2966C23.1013 35.5794 24.661 35.5794 26.1816 35.2966C27.6977 35.04 29.1434 34.4692 30.4258 33.6208C32.4642 35.2113 34.5117 36.7896 36.5501 38.3801C34.3194 40.4085 31.6002 41.8227 28.6587 42.4842C25.4119 43.2475 22.0284 43.2109 18.799 42.3776C16.2448 41.6956 13.859 40.4934 11.7912 38.8462C9.60247 37.1086 7.81485 34.9187 6.55054 32.4265Z" fill="#319F43"/>
</svg>
