<svg width="240" height="80" viewBox="0 0 240 80" fill="none" xmlns="http://www.w3.org/2000/svg">
<rect width="240" height="80" fill="#00C4BE"/>
<path d="M161.005 52.7189L174.817 55.6504H156.642V39.9681L161.005 42.9631V52.7189Z" fill="white"/>
<path d="M15.8099 34.0414H10V55.3483H15.3522C18.0024 55.3483 19.944 54.4665 21.1842 52.7028C22.4244 50.9392 23.0445 48.2222 23.0445 44.5439C23.0445 40.8656 22.5573 38.4346 21.5828 36.814C20.4386 34.9709 18.5192 34.0414 15.8099 34.0414ZM17.4783 50.9074C17.0575 51.9005 16.3488 52.401 15.3448 52.401H14.6361V37.0285H15.4334C16.4669 37.0285 17.1756 37.5051 17.5669 38.4585C18.0098 39.531 18.2387 41.5727 18.2387 44.5757C18.2387 47.5787 17.9877 49.7475 17.4857 50.9074H17.4783Z" fill="white"/>
<path d="M37.8017 39.9123C37.8017 35.9957 35.6018 34.0414 31.1946 34.0414H25.0894V55.3483H29.7329V45.9739H30.9067L33.3354 55.3483H38.1044L35.2179 44.9967C36.9454 44.0037 37.8091 42.3115 37.8091 39.9123H37.8017ZM30.6926 43.1695H29.7329V36.9331H30.8181C31.6523 36.9331 32.2355 37.1715 32.5751 37.6322C32.9073 38.101 33.0771 38.9113 33.0771 40.0712C33.0771 42.1447 32.2798 43.1775 30.6926 43.1775V43.1695Z" fill="white"/>
<path d="M47.2141 38.0848C46.6309 40.198 46.2397 41.9855 46.0404 43.4393C45.8189 41.9775 45.3833 40.19 44.7411 38.0848L43.5304 34.0331H38.4292L43.6116 46.49L43.5304 55.348H48.3436V46.339L53.2381 34.041H48.3436L47.2141 38.0927V38.0848Z" fill="white"/>
<path d="M59.0407 34.041H54.3603V55.348H64.6069V52.1782H59.048V34.0331L59.0407 34.041Z" fill="white"/>
<path d="M70.9557 34.0414H66.2753V55.3483H70.9557V34.0414Z" fill="white"/>
<path d="M93.7817 34.0414H89.1013V55.3483H93.7817V34.0414Z" fill="white"/>
<path d="M105.446 39.3956C105.446 40.4522 105.483 42.4383 105.571 45.3619C105.069 43.8604 104.25 41.8186 103.106 39.2446L100.81 34.0331H96.587V55.3401H100.935V48.4602C100.935 47.348 100.898 45.2347 100.81 42.1285C101.563 44.3609 102.426 46.5853 103.401 48.7939L106.243 55.3401H109.801V34.0331H105.453V39.3876L105.446 39.3956Z" fill="white"/>
<path d="M81.9923 39.3956C81.9923 40.4522 82.0292 42.4383 82.1178 45.3619C81.6158 43.8604 80.7963 41.8186 79.6521 39.2446L77.3562 34.0331H73.1335V55.3401H77.4817V48.4602C77.4817 47.348 77.4448 45.2347 77.3562 42.1285C78.1092 44.3609 78.9729 46.5853 79.9474 48.7939L82.7896 55.3401H86.3478V34.0331H81.9996V39.3876L81.9923 39.3956Z" fill="white"/>
<path d="M118.704 47.2451H120.794V49.3424C120.794 51.4954 120.151 52.5679 118.874 52.5679C117.759 52.5679 117.08 51.4 116.822 49.0644C116.763 48.6592 116.741 47.1974 116.741 44.6791C116.741 41.4536 116.881 39.3166 117.162 38.2838C117.442 37.3066 117.966 36.822 118.749 36.822C119.302 36.822 119.694 37.108 119.923 37.6721C120.114 38.1567 120.299 39.1338 120.461 40.5956L125.061 40.0474C124.728 35.8051 122.639 33.684 118.793 33.684C116.261 33.684 114.474 34.5817 113.441 36.3612C112.437 38.0454 111.935 40.8181 111.935 44.6711C111.935 48.5242 112.407 51.1776 113.352 52.8618C114.408 54.7288 116.209 55.6662 118.749 55.6662C123.126 55.6662 125.312 53.3623 125.312 48.7546V44.2501H118.704V47.2451Z" fill="white"/>
<path d="M179.217 44.2422C181.461 43.3842 182.576 41.8271 182.576 39.5709C182.576 35.6622 180.236 33.7079 175.563 33.7079H169.753V55.6504H175.482C180.391 55.6504 182.842 53.5055 182.842 49.2234C182.842 46.7606 181.639 45.1002 179.225 44.2422H179.217ZM174.397 36.6871H175.386C176.995 36.6871 177.8 37.6801 177.8 39.6662C177.8 41.7795 177.01 42.8361 175.43 42.8361H174.397V36.6871ZM177.431 51.8848C177.047 52.4091 176.375 52.6713 175.43 52.6713H174.397V45.712H175.253C176.257 45.712 176.966 45.9821 177.386 46.5302C177.8 47.0705 178.006 47.9841 178.006 49.2552C178.006 50.5263 177.815 51.3684 177.423 51.8927L177.431 51.8848Z" fill="white"/>
<path d="M193.509 50.3197C193.509 51.9483 192.867 52.7666 191.575 52.7666C190.283 52.7666 189.552 51.9404 189.552 50.288V33.7079H184.732V50.2562C184.732 52.0516 185.322 53.4578 186.496 54.4747C187.677 55.4916 189.338 56 191.486 56C196.049 56 198.33 54.0139 198.33 50.0417V33.7079H193.509V50.3197Z" fill="white"/>
<path d="M214.128 39.7536C214.128 35.7258 211.862 33.7079 207.329 33.7079H201.047V55.6504H205.823V45.998H207.026L209.521 55.6504H214.431L211.456 44.997C213.235 43.9721 214.128 42.2323 214.128 39.7616V39.7536ZM206.812 43.1062H205.823V36.6791H206.938C207.794 36.6791 208.399 36.9175 208.746 37.4021C209.093 37.8787 209.263 38.7209 209.263 39.9125C209.263 42.0416 208.444 43.1062 206.805 43.1062H206.812Z" fill="white"/>
<path d="M224.973 33.7076L223.814 37.8784C223.216 40.0552 222.81 41.8903 222.61 43.3918C222.381 41.8903 221.939 40.0472 221.274 37.8784L220.027 33.7076H214.77L220.108 46.522L220.019 55.6422H224.965V46.3631L230 33.6996H224.965L224.973 33.7076Z" fill="white"/>
<path d="M132.856 52.7189L119.044 55.6504H137.219V39.9681L132.856 42.9631V52.7189Z" fill="white"/>
<path d="M137.227 39.9679L138.718 42.4069V55.6582H141.198V33.1039L137.227 35.67V39.9759V39.9679Z" fill="white"/>
<path d="M141.198 33.1039L144.417 35.6148V55.6586H146.934V24L141.198 27.7101L141.198 33.1039Z" fill="white"/>
<path d="M156.642 39.9681L155.151 42.4069V55.6582H152.67V33.1039L156.642 35.67V39.9759V39.9681Z" fill="white"/>
<path d="M152.663 33.1043L149.444 35.6148V55.6586H146.927V24L152.663 27.7101V33.1043Z" fill="white"/>
</svg>
